<mxfile host="app.diagrams.net" modified="2022-09-20T19:16:05.975Z" agent="5.0 (Windows)" etag="hisTI6ek-TExVC_Ct6Mn" version="20.2.8" type="github">
  <diagram id="YMunCL6TgdnjfD122b9u" name="Page-1">
    <mxGraphModel dx="910" dy="523" grid="1" gridSize="10" guides="1" tooltips="1" connect="1" arrows="1" fold="1" page="1" pageScale="1" pageWidth="827" pageHeight="1169" math="0" shadow="0">
      <root>
        <mxCell id="0" />
        <mxCell id="1" parent="0" />
        <mxCell id="hlDREirdPOmBiZGu357j-1" value="" style="shape=image;html=1;verticalAlign=top;verticalLabelPosition=bottom;labelBackgroundColor=#ffffff;imageAspect=0;aspect=fixed;image=https://cdn0.iconfinder.com/data/icons/logos-microsoft-office-365/128/Microsoft_Office-05-128.png" parent="1" vertex="1">
          <mxGeometry x="50" y="110" width="128" height="128" as="geometry" />
        </mxCell>
        <mxCell id="hlDREirdPOmBiZGu357j-2" value="" style="shape=image;html=1;verticalAlign=top;verticalLabelPosition=bottom;labelBackgroundColor=#ffffff;imageAspect=0;aspect=fixed;image=https://cdn0.iconfinder.com/data/icons/long-shadow-web-icons/512/python-128.png;fillOpacity=80;" parent="1" vertex="1">
          <mxGeometry x="296.5" y="60" width="154" height="154" as="geometry" />
        </mxCell>
        <mxCell id="hlDREirdPOmBiZGu357j-4" value="" style="shape=singleArrow;whiteSpace=wrap;html=1;arrowWidth=0.4;arrowSize=0.4;verticalAlign=top;labelBackgroundColor=#ffffff;" parent="1" vertex="1">
          <mxGeometry x="189.5" y="144" width="90" height="60" as="geometry" />
        </mxCell>
        <mxCell id="hlDREirdPOmBiZGu357j-16" value="" style="html=1;shadow=0;dashed=0;align=center;verticalAlign=middle;shape=mxgraph.arrows2.twoWayArrow;dy=0.6;dx=35;" parent="1" vertex="1">
          <mxGeometry x="470.5" y="144" width="110" height="60" as="geometry" />
        </mxCell>
        <mxCell id="NsLtPB4VZ8ZX5hZJDl6O-1" value="" style="shape=image;verticalLabelPosition=bottom;labelBackgroundColor=default;verticalAlign=top;aspect=fixed;imageAspect=0;image=data:image/svg+xml,PHN2ZyB4bWw6c3BhY2U9InByZXNlcnZlIiBpZD0ic3ZnMjk4NSIgaGVpZ2h0PSIxODAuNjAzNDkiIHdpZHRoPSIzODEuODUxNSIgdmVyc2lvbj0iMS4xIiB4bWxuczp4bGluaz0iaHR0cDovL3d3dy53My5vcmcvMTk5OS94bGluayIgeG1sbnM9Imh0dHA6Ly93d3cudzMub3JnLzIwMDAvc3ZnIiB2aWV3Qm94PSIwIDAgMzgxLjg1MTUgMTgwLjYwMzQ5Ij48dGl0bGUgaWQ9InRpdGxlMjk5OCI+U1FMaXRlPC90aXRsZT48bWV0YWRhdGEgaWQ9Im1ldGFkYXRhMjk5MSI+aW1hZ2Uvc3ZnK3htbFNRTGl0ZTwvbWV0YWRhdGE+PGRlZnMgaWQ9ImRlZnMyOTg5Ij48bGluZWFyR3JhZGllbnQgc3ByZWFkTWV0aG9kPSJwYWQiIGdyYWRpZW50VHJhbnNmb3JtPSJtYXRyaXgoLTQuMDJlLTYsLTkxLjg5MDcsLTkxLjg5MDcsNC4wMmUtNiw4NS44ODA5LDE2MS40MzQpIiBncmFkaWVudFVuaXRzPSJ1c2VyU3BhY2VPblVzZSIgaWQ9ImxpbmVhckdyYWRpZW50MzAyNyIgeTI9IjAiIHgyPSIxIiB5MT0iMCIgeDE9IjAiPjxzdG9wIG9mZnNldD0iMCIgc3R5bGU9InN0b3AtY29sb3I6Izk3ZDlmNjtzdG9wLW9wYWNpdHk6MSIgaWQ9InN0b3AzMDI5Ii8+PHN0b3Agb2Zmc2V0PSIwLjkyMDI0NDk5IiBzdHlsZT0ic3RvcC1jb2xvcjojMGY4MGNjO3N0b3Atb3BhY2l0eToxIiBpZD0ic3RvcDMwMzEiLz48c3RvcCBvZmZzZXQ9IjEiIHN0eWxlPSJzdG9wLWNvbG9yOiMwZjgwY2M7c3RvcC1vcGFjaXR5OjEiIGlkPSJzdG9wMzAzMyIvPjwvbGluZWFyR3JhZGllbnQ+PGxpbmVhckdyYWRpZW50IHNwcmVhZE1ldGhvZD0icGFkIiBncmFkaWVudFRyYW5zZm9ybT0ibWF0cml4KC00LjAyZS03LC05LjE4OTA3LC05LjE4OTA3LDQuMDJlLTcsOC41ODgwOSwxNi4xNDM0KSIgZ3JhZGllbnRVbml0cz0idXNlclNwYWNlT25Vc2UiIHhsaW5rOmhyZWY9IiNsaW5lYXJHcmFkaWVudDMwMjciIGlkPSJsaW5lYXJHcmFkaWVudDU0MjEiIHkyPSItOS4xMDgyOTgzIiB4Mj0iLTYuNzQxMDA3MyIgeTE9Ii05LjEwODI5ODMiIHgxPSItMTUuNjE0Njk0Ii8+PGxpbmVhckdyYWRpZW50IHNwcmVhZE1ldGhvZD0icGFkIiBncmFkaWVudFRyYW5zZm9ybT0ibWF0cml4KC01LjAyNWUtNywxMS40ODYzMzcsLTExLjQ4NjMzNywtNS4wMjVlLTcsLTMwLjgzOTYzOCwyMDIuMTg2OTgpIiBncmFkaWVudFVuaXRzPSJ1c2VyU3BhY2VPblVzZSIgeGxpbms6aHJlZj0iI2xpbmVhckdyYWRpZW50MzAyNyIgaWQ9ImxpbmVhckdyYWRpZW50Mjk5NSIgeTI9Ii05LjEwODI5ODMiIHgyPSItNi43NDEwMDczIiB5MT0iLTkuMTA4Mjk4MyIgeDE9Ii0xNS42MTQ2OTQiLz48L2RlZnM+PHBhdGggc3R5bGU9ImZpbGw6IzAwM2I1NztmaWxsLW9wYWNpdHk6MTtmaWxsLXJ1bGU6bm9uemVybztzdHJva2U6bm9uZSIgaWQ9IlNRTGl0ZSIgZD0ibSAxNDcuNTMxMjUsODkuMjE4NzU1IGMgLTQuODIyNSwwIC04Ljc0Mzc1LDEuNDI3NSAtMTEuNzUsNC4yODEyNSAtMy4wMDYyNSwyLjg1NjI1IC00LjUzMTI1LDYuNjAwMTM1IC00LjUzMTI1LDExLjE4NzUwNSAwLDIuMzc3MzggMC4zNzg3NSw0LjU0NSAxLjEyNSw2LjUzMTI1IDAuNzQ2MjUsMS45OTAyNSAxLjkwNzUsMy44MzQgMy40Njg3NSw1LjUgMS41NjEyNSwxLjY2NzUgNC42ODYyNSwzLjkzMjYzIDkuMzQzNzUsNi44MTI1IDUuNzE1LDMuNDg4ODcgOS40NTUsNi4zMjAzNyAxMS4yNSw4LjUzMTI0IDEuNzk2MjUsMi4yMDkgMi42ODc1LDQuNTI0IDIuNjg3NSw2LjkzNzUgMCwzLjIzMTUgLTEuMDYzNzUsNS44MTEgLTMuMjUsNy43NSAtMi4xOSwxLjkzOTg4IC01LjExODc1LDIuOTA2MjUgLTguNzUsMi45MDYyNSAtMy44MywwIC03LjE2NjI1LC0xLjM1MDEyIC0xMC4wMzEyNSwtNC4wMzEyNSAtMi44NjUsLTIuNjg1IC00LjMxMTI1LC02LjIzNjM3IC00LjM0Mzc1LC0xMC42ODc1IGwgLTEuNzgxMjUsMCAwLDE2LjE1NjI1IDEuNzgxMjUsMCBjIDAuNTQzNzUsLTEuNTI5ODggMS4yOTYyNSwtMi4zMTI1IDIuMjgxMjUsLTIuMzEyNSAwLjQ3Mzc1LDAgMS41ODM3NSwwLjMyNjc1IDMuMzEyNSwwLjkzNzUgNC4yMDYyNSwxLjQ5NjYyIDcuNjYsMi4yMTg3NSAxMC4zNzUsMi4yMTg3NSA0LjY3ODc1LDAgOC42NzI1LC0xLjYzODYyIDEyLC00Ljk2ODc1IDMuMzIyNSwtMy4zMjg2MiA1LC03LjM0Mzc1IDUsLTEyLjAzMTI1IDAsLTMuNjM0NzUgLTEuMTA3NSwtNi44Njg2MyAtMy4yODEyNSwtOS42ODc0OSAtMi4xNzM3NSwtMi44MjIyNSAtNi40MDEyNSwtNi4xMDUwMSAtMTIuNzE4NzUsLTkuODc1IC01LjQzNjI1LC0zLjI2NjE0IC04Ljk2NSwtNS45MjYyNSAtMTAuNTkzNzUsLTggLTEuNjMxMjUsLTIuMDcwNzYgLTIuNDY4NzUsLTQuMzYxMzcgLTIuNDY4NzUsLTYuODc1IDAsLTIuNzE4NzU1IDAuOTk4NzUsLTQuOTAyNTA1IDIuOTY4NzUsLTYuNTMxMjU1IDEuOTcsLTEuNjMgNC41NTEyNSwtMi40Mzc1IDcuNzgxMjUsLTIuNDM3NSAzLjYzNSwwIDYuNjY1LDEuMDc4NzUgOS4wNjI1LDMuMjUgMi4zOTUsMi4xNzUgMy43OCw1LjE4OSA0LjE4NzUsOS4wNjI1MDUgbCAxLjc4MTI1LDAgMCwtMTQuMDAwMDA1IC0xLjY1NjI1LDAgYyAtMC4yMDI1LDAuNzEzNzUgLTAuMzksMS4xNyAtMC41NjI1LDEuMzc1IC0wLjE2NzUsMC4yMDM3NSAtMC40OSwwLjMxMjUgLTAuOTY4NzUsMC4zMTI1IC0wLjU3NjI1LDAgLTEuNjAzNzUsLTAuMjQyNSAtMy4wNjI1LC0wLjcxODc1IC0zLjEyNSwtMS4wNTI1IC02LjAwNjI1LC0xLjU5Mzc1IC04LjY1NjI1LC0xLjU5Mzc1IHogbSA1OC4yMTg3NSwwIGMgLTUuODc2MjUsMCAtMTEuMjExMjUsMS4zODUgLTE2LjAzMTI1LDQuMTU2MjUgLTQuODI3NSwyLjc2NjI1IC04LjY0ODc1LDYuNjA3NSAtMTEuNDY4NzUsMTEuNTAwMDA1IC0yLjgxODc1LDQuODkyMTIgLTQuMjE4NzUsMTAuMDg3ODYgLTQuMjE4NzUsMTUuNjI1IDAsNy40Mzg5OSAyLjQzNSwxNC4wNjYzNiA3LjM0Mzc1LDE5Ljg3NDk5IDQuOTExMjUsNS44MDUxMyAxMC43OTYyNSw5LjQyMjM4IDE3LjYyNSwxMC44MTI1IDEuNTYxMjUsMC44MTM1IDMuNzk1LDIuOTEzNSA2LjcxODc1LDYuMzEyNSAzLjI5NSwzLjgzNTg3IDYuMDgyNSw2LjYwMjUgOC4zNzUsOC4yNSAyLjI5LDEuNjQ4MzcgNC43NjI1LDIuODU2NSA3LjM3NSwzLjY1NjI1IDIuNjE1LDAuNzk2MzggNS40NDI1LDEuMTg3NSA4LjUsMS4xODc1IDMuNzAyNSwwIDcuMDE3NSwtMC42NDM1IDkuOTM3NSwtMS45Njg3NSBMIDIzOS4yNSwxNjcgYyAtMS42OTUsMC42MTEzOCAtMy41MDI1LDAuOTA2MjUgLTUuNDA2MjUsMC45MDYyNSAtMi41ODM3NSwwIC01LjE5NSwtMC44NTIgLTcuODEyNSwtMi41NjI1IC0yLjYxMzc1LC0xLjcxNDc1IC01Ljg4MjUsLTQuOTg2MzcgLTkuNzgxMjUsLTkuODEyNSAtMS44MzI1LC0yLjMxMjUgLTMuMDk3NSwtMy43NzE1IC0zLjgxMjUsLTQuMzQzNzUgNy40NzEyNSwtMS40NTkgMTMuNjE1LC01LjA4IDE4LjQwNjI1LC0xMC44NzUgNC43OSwtNS43OTI1IDcuMTg3NSwtMTIuNDAzMzYgNy4xODc1LC0xOS44MTI0OSAwLC04Ljc5NzM5IC0zLjEzLC0xNi4xOTA4OCAtOS4zNDM3NSwtMjIuMjE4NzU1IC02LjIxODc1LC02LjAyODUgLTEzLjg2NjI1LC05LjA2MjUgLTIyLjkzNzUsLTkuMDYyNSB6IG0gMzYuMzQzNzUsMCAwLjA5MzcsMS45MDYyNSBjIDMuOTEyNSwwIDYuMTAzNzUsMS4xNTI1IDYuNTkzNzUsMy40Njg3NSAwLjE4MjUsMC44Mjg3NSAwLjI2NjI1LDIuMzU5IDAuMjgxMjUsNC41NjI1IGwgLTAuMDMxMiw0Mi4xNTYyNDUgYyAtMC4wMzI1LDMuMTQ4NSAtMC40ODEyNSw1LjE1ODc1IC0xLjM0Mzc1LDYuMDMxMjUgLTAuODYzNzUsMC44NjYyNSAtMi4zMjM3NSwxLjQwODc1IC00LjQzNzUsMS42MjUgbCAtMC4wOTM3LDEuOTA2MjUgMzksMCAxLC05LjU2MjUgLTEuNzgxMjUsMCBjIC0wLjUwODc1LDIuNjA1IC0xLjY3NSw0LjQ3MTEzIC0zLjUzMTI1LDUuNTMxMjUgLTEuODYxMjUsMS4wNjc4NyAtNS4xNTI1LDEuNTkzNzUgLTkuOTA2MjUsMS41OTM3NSBsIC0zLjY4NzUsMCBjIC00LjI3NzUsMCAtNi43NTI1LC0xLjU0NjM4IC03LjQwNjI1LC00LjY1NjI1IC0wLjEzNSwtMC42MTUyNSAtMC4xODEyNSwtMS4yNzQ4OCAtMC4xODc1LC0yIGwgMC4xNTYyNSwtNDIuNjI0OTk1IGMgLTEwZS00LC0zLjE0MzUgMC4zOTYyNSwtNS4yNSAxLjIxODc1LC02LjI4MTI1IDAuODMxMjUsLTEuMDI3NSAyLjMzLC0xLjYwMjUgNC41LC0xLjc1IGwgLTAuMDkzNywtMS45MDYyNSAtMjAuMzQzNzUsMCB6IG0gLTM1LjcxODc1LDIuMzEyNSBjIDYuNjI3NSwwIDEyLjAzODc1LDIuNjEwMjUgMTYuMjE4NzUsNy44NzUgNC4xNzg3NSw1LjI2NjYzNSA2LjI1LDEyLjQ4NDg3NSA2LjI1LDIxLjYyNTAwNSAwLDguNjYxMTEgLTIuMTAxMjUsMTUuNTk2MTIgLTYuMzEyNSwyMC44MTI0OSAtNC4yMTEyNSw1LjIxNDc1IC05LjgxNjI1LDcuODEyNSAtMTYuNzgxMjUsNy44MTI1IC02LjY5MTI1LDAgLTEyLjExNzUsLTIuNjc4NzUgLTE2LjI4MTI1LC04LjA2MjUgLTQuMTYsLTUuMzgzNzUgLTYuMjE4NzUsLTEyLjM3MzUgLTYuMjE4NzUsLTIwLjk2ODc0IDAsLTguODMyNSAyLjA4Mzc1LC0xNS45MDI4OCA2LjI4MTI1LC0yMS4xODc1MDUgNC4xOTUsLTUuMjc5IDkuODEyNSwtNy45MDYyNSAxNi44NDM3NSwtNy45MDYyNSB6IG0gODkuNjg3NSw5LjA2MjUwNSBjIC0wLjk1MTI1LDAgLTEuNjc2MjUsMC4zMjEyNSAtMi4yMTg3NSwwLjk2ODc1IC0wLjU1NSwwLjY0NDk5IC0wLjcyNSwxLjQyNjI0IC0wLjUzMTI1LDIuMzc1IDAuMTg3NSwwLjkyMDM3IDAuNzA2MjUsMS43MjcgMS41MzEyNSwyLjQwNjI1IDAuODIsMC42Nzg2MSAxLjcwNSwxLjAzMTI1IDIuNjU2MjUsMS4wMzEyNSAwLjkyLDAgMS42MjEyNSwtMC4zNTI2MiAyLjEyNSwtMS4wMzEyNSAwLjUwMzc1LC0wLjY3OTI1IDAuNjU3NSwtMS40ODU4OCAwLjQ2ODc1LC0yLjQwNjI1IC0wLjE5Mzc1LC0wLjk0ODc2IC0wLjY5NSwtMS43MzAwMSAtMS40Njg3NSwtMi4zNzUgLTAuNzgyNSwtMC42NDc1IC0xLjY0MjUsLTAuOTY4NzUgLTIuNTYyNSwtMC45Njg3NSB6IG0gMjUuNzE4NzUsNi40Njg3NSBjIC0xLjYxNjI1LDYuMjE3NzQgLTUuMTIsOS41ODI0OSAtMTAuNSwxMC4xMjUgbCAwLjA2MjUsMS43ODEyNSA2LjI4MTI1LDAgLTAuMTI1LDIxLjA2MjQ5IGMgMC4wMSwzLjYwMSAwLjEyLDUuOTk4NSAwLjM3NSw3LjIxODc1IDAuNjE4NzUsMi45MjEzOCAyLjUyNjI1LDQuNDA2MjUgNS43MTg3NSw0LjQwNjI1IDQuNjE4NzUsMCA5LjQ2Mzc1LC0yLjgxMzUgMTQuNTMxMjUsLTguNDM3NSBsIC0xLjUzMTI1LC0xLjMxMjUgYyAtMy42NTg3NSwzLjcwMzYzIC02Ljg5Mzc1LDUuNTYyNSAtOS43MTg3NSw1LjU2MjUgLTEuNzM2MjUsMCAtMi44MTI1LC0wLjk5ODUgLTMuMjE4NzUsLTIuOTY4NzUgQyAzMjMuNTQ1LDE0NC4wMjE1IDMyMy41LDE0My40NjIzOCAzMjMuNSwxNDIuODEyNSBsIDAuMDYyNSwtMjMuODQzNzQgOS41OTM3NSwwIC0wLjA5MzcsLTIuODQzNzUgLTkuNDY4NzUsMCAwLC05LjA2MjUgLTEuODEyNSwwIHogbSAzNy4wOTM3NSw3LjkzNzUgYyAtNS4zNjYyNSwwIC05LjczMTI1LDIuNjA1IC0xMy4xMjUsNy43ODEyNSAtMy4zNzYyNSw1LjE4NSAtNC40MjEyNSwxMC45Mjk2MSAtMy4wOTM3NSwxNy4yNDk5OSAwLjc4MTI1LDMuNzAyMTIgMi4zMzc1LDYuNTcxMzggNC43MTg3NSw4LjU5Mzc1IDIuMzc3NSwyLjAyMTUgNS4zOTM3NSwzLjAzMTI1IDksMy4wMzEyNSAzLjM1NzUsMCA4LjAzMjUsLTAuODUwMTIgMTAsLTIuNTYyNSAxLjk3MjUsLTEuNzExMzggMy43OSwtNC40ODM4OCA1LjQ2ODc1LC04LjI4MTI1IEwgMzcwLjUsMTM5LjQwNjI1IGMgLTIuNjc3NSw0LjkyNjI1IC04LjA4MTI1LDcuNDA2MjUgLTEyLjE1NjI1LDcuNDA2MjUgLTUuNjAyNSwwIC05LjAzMzc1LC0zLjA3Mzc1IC0xMC4zMTI1LC05LjE4NzUgLTAuMTY2MjUsLTAuNzgwMzggLTAuMjksLTEuNjE4NzUgLTAuMzc1LC0yLjUgNi42NjUsLTEuMDU1MjUgMTEuNzE2MjUsLTIuOTIzODggMTUuMTI1LC01LjYyNSAzLjQwNjI1LC0yLjcwMjYxIDYuODI2MjUsLTUuNTY3MzcgNi4xODc1LC04LjU5Mzc0IC0wLjM4LC0xLjc5ODM4IC0xLjMxMzc1LC0zLjIxMjM4IC0yLjc1LC00LjI4MTI1IC0xLjQ1NSwtMS4wNjgzNyAtNS4yMzI1LC0xLjYyNSAtNy4zNDM3NSwtMS42MjUgeiBtIC01OC42NTYyNSwwLjIxODc1IC0xMS41NjI1LDIuNjU2MjUgMCwyLjA2MjUgNCwtMC41IGMgMS45Mzc1LDAgMy4wNzc1LDAuODc3MzggMy40Mzc1LDIuNjI1IDAuMTIxMjUsMC41ODQ4OCAwLjE5NzUsMS40MDYyNSAwLjIxODc1LDIuNDM3NSBsIC0wLjEyNSwxOC45MDYyNCBjIC0wLjAzMjUsMi42MTYyNSAtMC4zMjI1LDQuMTM3MTIgLTAuOTA2MjUsNC41OTM3NSAtMC41ODg3NSwwLjQ1NzUgLTIuMTQxMjUsMC42ODc1IC00LjY1NjI1LDAuNjg3NSBsIC0wLjA2MjUsMS43ODEyNSAxOC4zNDM3NSwwIC0wLjAzMTIsLTEuNzgxMjUgYyAtMi41NDg3NSwwIC00LjIwMTI1LC0wLjIwMTEyIC00LjkzNzUsLTAuNTkzNzUgLTAuNzIzNzUsLTAuMzkwMTIgLTEuMjIyNSwtMS4xMDAxMiAtMS40Mzc1LC0yLjE4NzUgLTAuMTY2MjUsLTAuNzgzNjMgLTAuMjM4NzUsLTIuMTMzODcgLTAuMjUsLTQgbCAwLjA2MjUsLTI2LjY4NzQ5IC0yLjA5Mzc1LDAgeiBtIDU1LjcxODc1LDMuNSBjIDEuMTE2MjUsMCAyLjE5NSwwLjQzMTEyIDMuMjgxMjUsMS4yODEyNSAxLjA3MTI1LDAuODQ3MTMgMS43MjM3NSwxLjc4OTEyIDEuOTM3NSwyLjgxMjUgMS4wNDYyNSw1LjAyNjM4IC0zLjQxLDguNTAxMzYgLTEzLjQzNzUsMTAuNDM3NDkgLTAuMjg2MjUsLTMuNjY1MTIgMC4zNDg3NSwtNi45OTIyNCAxLjk2ODc1LC05Ljk5OTk5IDEuNjA3NSwtMy4wMDQ4OCAzLjcwMTI1LC00LjUzMTI1IDYuMjUsLTQuNTMxMjUgeiIvPjxwYXRoIHN0eWxlPSJmaWxsOiMwZjgwY2M7ZmlsbC1vcGFjaXR5OjE7ZmlsbC1ydWxlOm5vbnplcm87c3Ryb2tlOm5vbmUiIGlkPSJzb2xpZC1iYWNrZ3JvdW5kIiBkPSJtIDEyMS42MzE1LDE3LjAzNjIzIC05OS41MDYsMCBDIDE1LjQ1NjUsMTcuMDM2MjMgMTAsMjIuNDkzNzMgMTAsMjkuMTYyNDggbCAwLDEwOS43MzY1IGMgMCw2LjY2ODM3IDUuNDU2NSwxMi4xMjUgMTIuMTI1NSwxMi4xMjUgbCA2NS41MzcyNSwwIEMgODYuOTE4ODg0LDExOC40MTQ3NyA5OC4wNTQ0OTksNTUuMTMwNDAyIDEyMS42MzE1LDE3LjAzNjIzIHoiLz48cGF0aCBzdHlsZT0iZmlsbDp1cmwoI2xpbmVhckdyYWRpZW50Mjk5NSk7ZmlsbC1vcGFjaXR5OjE7ZmlsbC1ydWxlOm5vbnplcm87c3Ryb2tlOm5vbmUiIGlkPSJncmFkaWVudC1iYWNrZ3JvdW5kIiBkPSJtIDExOC4wMTY1LDIwLjU3MzczIC05NS44OTEsMCBjIC00LjczNTM3NSwwIC04LjU4ODg3NSwzLjg1MjUgLTguNTg4ODc1LDguNTg4NzUgbCAwLDEwMS43MzAxMyBjIDIxLjcxNzI1LC04LjMzNSA1NC4zMTIyMSwtMTUuNTI2OSA3Ni44NDk1ODUsLTE1LjIwMDI3IDQuNTI4OTMsLTIzLjY4MDkwMSAxNy44Mzk0MSwtNzAuMDkwNDI0IDI3LjYzMDI5LC05NS4xMTg2MSB6Ii8+PHBhdGggc3R5bGU9ImZpbGw6IzAwM2I1NztmaWxsLW9wYWNpdHk6MTtmaWxsLXJ1bGU6bm9uemVybztzdHJva2U6bm9uZSIgaWQ9ImZlYXRoZXIiIGQ9Im0gMTQ0Ljg0MTUsMTMuNDQ0OTggYyAtNi44MTUsLTYuMDc3NSAtMTUuMDY2MjUsLTMuNjM2MjUgLTIzLjIxLDMuNTkxMjUgLTEuMjA4NzUsMS4wNzM3NSAtMi40MTUsMi4yNjUgLTMuNjE1LDMuNTM3NSAtMTMuOTMxMjUsMTQuNzc4NzUgLTI2Ljg2MjUsNDIuMTUzNzUgLTMwLjg4LDYzLjA2IDEuNTY1LDMuMTczNzUgMi43ODc1LDcuMjIzNzUgMy41OTI1LDEwLjMxNzUgMC4yMDYyNSwwLjc5Mzc1IDAuMzkyNSwxLjUzODc1IDAuNTQxMjUsMi4xNzI1IDAuMzUzNzUsMS40OTk4NzUgMC41NDM3NSwyLjQ3MjUgMC41NDM3NSwyLjQ3MjUgMCwwIC0wLjEyNSwtMC40NzI2MjUgLTAuNjM3NSwtMS45NTg3NSAtMC4wOTc1LC0wLjI4NSAtMC4yMDYyNSwtMC41OTYyNSAtMC4zMzUsLTAuOTYyNSAtMC4wNTUsLTAuMTUxMjUgLTAuMTMxMjUsLTAuMzM1IC0wLjIxNSwtMC41MzEyNSAtMC45MDg3NSwtMi4xMTI1IC0zLjQyMjUsLTYuNTcxMjUgLTQuNTI4NzUsLTguNTEyNSAtMC45NDYyNSwyLjc5MTI1IC0xLjc4MjUsNS40MDI1IC0yLjQ4MjUsNy43NjUgMy4xOTM3NSw1Ljg0MzUgNS4xNCwxNS44NTc3NSA1LjE0LDE1Ljg1Nzc1IDAsMCAtMC4xNjg3NSwtMC42NDkgLTAuOTcxMjUsLTIuOTE0MTIgLTAuNzEyNSwtMi4wMDMzOCAtNC4yNjEyNSwtOC4yMjExMyAtNS4xMDE4NzUsLTkuNjc0NzU1IC0xLjQzOCw1LjMwODUwNSAtMi4wMDkzNzUsOC44OTI1MDUgLTEuNDk0MTI1LDkuNzY1MTI1IDEuMDAwMzc1LDEuNjkwODggMS45NTMxMjUsNC42MDgzOCAyLjc4OTc1LDcuODM0ODggMS44OSw3LjI2ODYyIDMuMjAzNzUsMTYuMTE3MjUgMy4yMDM3NSwxNi4xMTcyNSAwLDAgMC4wNDI1LDAuNTg2MzcgMC4xMTM3NSwxLjQ4ODc1IC0wLjI2MjUsNi4xMDQgLTAuMTA1LDEyLjQzMjYyIDAuMzY3NSwxOC4xNTI4NyAwLjYyNjI1LDcuNTcyMjUgMS44MDUsMTQuMDc3MTMgMy4zMDc1LDE3LjU1ODUgbCAxLjAyLC0wLjU1NjEyIGMgLTIuMjA2MjUsLTYuODU4ODggLTMuMTAyNSwtMTUuODQ3NjMgLTIuNzEsLTI2LjIxMzg4IDAuNTkzNzUsLTE1Ljg0NTEyIDQuMjQsLTM0Ljk1MzYyIDEwLjk3NzUsLTU0Ljg3IDExLjM4MjUsLTMwLjA2NSAyNy4xNzUsLTU0LjE4NzUgNDEuNjI4NzUsLTY1LjcwNzUgLTEzLjE3Mzc1LDExLjg5NzUgLTMxLjAwMzc1LDUwLjQwODc1IC0zNi4zNDEyNSw2NC42NyAtNS45NzYyNSwxNS45NyAtMTAuMjExMjUsMzAuOTU2MzggLTEyLjc2Mzc1LDQ1LjMxNDc1IDQuNDAzNzUsLTEzLjQ2MDg3IDE4LjY0MjUsLTE5LjI0NyAxOC42NDI1LC0xOS4yNDcgMCwwIDYuOTgzNzUsLTguNjEyODcgMTUuMTQ1LC0yMC45MTc3NSAtNC44ODg3NSwxLjExNSAtMTIuOTE2MjUsMy4wMjM3NSAtMTUuNjA1LDQuMTUzNzUgLTMuOTY2MjUsMS42NjM3NSAtNS4wMzUsMi4yMzEyNSAtNS4wMzUsMi4yMzEyNSAwLDAgMTIuODQ3NSwtNy44MjM3NSAyMy44NywtMTEuMzY2MjUgMTUuMTU4NzUsLTIzLjg3NSAzMS42NzM3NSwtNTcuNzkyNSAxNS4wNDI1LC03Mi42Mjg3NSIvPjwvc3ZnPg==;" parent="1" vertex="1">
          <mxGeometry x="589.47" y="124" width="211.05" height="100" as="geometry" />
        </mxCell>
        <mxCell id="NsLtPB4VZ8ZX5hZJDl6O-2" value="" style="shape=image;verticalLabelPosition=bottom;labelBackgroundColor=default;verticalAlign=top;aspect=fixed;imageAspect=0;image=data:image/svg+xml,PHN2ZyB2aWV3Qm94PSIwIDAgODE4LjYzIDMzMS4yMSIgeG1sbnM9Imh0dHA6Ly93d3cudzMub3JnLzIwMDAvc3ZnIiBkYXRhLW5hbWU9IkxheWVyIDEiIGlkPSJMYXllcl8xIj48ZGVmcz48c3R5bGU+LmNscy0xe2ZpbGw6IzEzMDc1NDt9LmNscy0ye2ZpbGw6I2ZmY2EwMDt9LmNscy0ze2ZpbGw6I2U3MDQ4ODt9PC9zdHlsZT48L2RlZnM+PHRpdGxlPkFydGJvYXJkIDYzPC90aXRsZT48cGF0aCBkPSJNMjkwLjg1LDE5OS4yMWMtMTAuMjcsMC0yMC43My00LjI1LTI3LjI4LTEyLjU4djQ1SDI0M2wwLTExMS4wOWgxOC42bC43MSwxMi4yMmM2LjM4LTkuMzksMTcuNzEtMTQuMzUsMjguNTItMTQuMzUsMjAuNzMsMCwzNiwxNy4zNywzNiw0MC40UzMxMS41OCwxOTkuMjIsMjkwLjg1LDE5OS4yMVptLTYuMzctNjUuNTVjLTEyLjA1LDAtMjEuNzksOS4zOS0yMS43OSwyNS4xNlMyNzIuNDMsMTg0LDI4NC40OCwxODRzMjEuNzktOS4zOSwyMS43OS0yNS4xNlMyOTYuNTMsMTMzLjY2LDI4NC40OCwxMzMuNjZaIiBjbGFzcz0iY2xzLTEiLz48cGF0aCBkPSJNNDA0LjM2LDE5Ny4xbC0uNzEtMTIuMjJjLTYuMzgsOS4zOS0xNy43MiwxNC4zNS0yOC41MywxNC4zNC0yMC43MywwLTM2LTE3LjM2LTM2LTQwLjM5czE1LjI0LTQwLjQsMzYtNDAuMzljMTAuODEsMCwyMi4xNSw1LDI4LjUzLDE0LjM1bC43MS0xMi4yMkg0MjNWMTk3LjFabS0yMi44NS02My40M2MtMTIuMDUsMC0yMS43OSw5LjM5LTIxLjgsMjUuMTZTMzY5LjQ1LDE4NCwzODEuNSwxODRzMjEuOC05LjM5LDIxLjgtMjUuMTZTMzkzLjU2LDEzMy42NywzODEuNTEsMTMzLjY3WiIgY2xhc3M9ImNscy0xIi8+PHBhdGggZD0iTTQ5NC44NywxOTcuMTFWMTU0Ljc3YzAtMTQuODgtNS4xMy0xOS44NC0xNC41Mi0xOS44NC05Ljc1LDAtMjAuMzgsOC44NS0yMC4zOCwxOS40OHY0Mi43SDQzOS40MVYxMjAuNTdINDU4LjJsLjg5LDE0LjE4YzUuMTQtOS43NSwxNi42NS0xNi4zLDI4LjM1LTE2LjMsMjAuMzcsMCwyOCwxNC4xOCwyOCwzMy4xM3Y0NS41NFoiIGNsYXNzPSJjbHMtMSIvPjxwYXRoIGQ9Ik01OTAuNzcsMTk3LjEzbC0uNzEtMTIuMjNjLTYuMzgsOS4zOS0xNy43MiwxNC4zNS0yOC41MiwxNC4zNS0yMC43MywwLTM2LTE3LjM3LTM2LTQwLjRzMTUuMjQtNDAuMzksMzYtNDAuMzljMTAuMjcsMCwyMC43Miw0LjI2LDI3LjI4LDEyLjU4VjkwLjgzaDIwLjU2bDAsMTA2LjNaTTU2Ny45MiwxMzMuN2MtMTIsMC0yMS43OSw5LjM5LTIxLjc5LDI1LjE1UzU1NS44NywxODQsNTY3LjkyLDE4NHMyMS43OS05LjM4LDIxLjc5LTI1LjE1UzU4MCwxMzMuNyw1NjcuOTIsMTMzLjdaIiBjbGFzcz0iY2xzLTEiLz48cGF0aCBkPSJNNjg2LjYsMTk3LjE0bC0uNzEtMTIuMjJjLTYuMzgsOS4zOS0xNy43MiwxNC4zNC0yOC41MywxNC4zNC0yMC43MywwLTM2LTE3LjM2LTM2LTQwLjRzMTUuMjQtNDAuMzksMzYtNDAuMzljMTAuODEsMCwyMi4xNSw1LDI4LjUzLDE0LjM2bC43MS0xMi4yM2gxOC42djc2LjUzWm0tMjIuODUtNjMuNDNjLTEyLDAtMjEuNzksOS4zOS0yMS44LDI1LjE2UzY1MS43LDE4NCw2NjMuNzQsMTg0czIxLjgtOS4zOSwyMS44LTI1LjE2UzY3NS44LDEzMy43MSw2NjMuNzUsMTMzLjcxWiIgY2xhc3M9ImNscy0xIi8+PHBhdGggZD0iTTc1MC43MywxOTkuNjNhNjAuMTYsNjAuMTYsMCwwLDEtMzAuNjUtOC42OWwzLjM3LTE0LjE3YzYuMiwzLjcyLDE1LjU5LDguNTEsMjYuOTMsOC41MSw4LjE1LDAsMTMuODItMi40OCwxMy44Mi04Ljg2LDAtNS40OS01Ljg1LTcuNDQtMTYuMy05LjkyLTE4Ljc4LTQuMDgtMjUuNTEtMTQtMjUuNTEtMjQuODEsMC0xMi4wNSw5LjM5LTIzLjM4LDMwLjEyLTIzLjM4LDEyLjU4LDAsMjMuNTcsNS40OSwyNiw2LjkxbC0zLjM3LDEzLjQ3QTQ0LjU5LDQ0LjU5LDAsMCwwLDc1MywxMzIuMzFjLTguMzIsMC0xMi40LDIuODMtMTIuNCw3LjQ0LDAsNS4xMyw1LjMyLDcuNDQsMTMuNDYsOS4zOSwyMC4yLDQuMjUsMjguMzUsMTMuNjQsMjguMzUsMjMuOTJDNzgyLjQ1LDE4OS41Myw3NzAuNCwxOTkuNjMsNzUwLjczLDE5OS42M1oiIGNsYXNzPSJjbHMtMSIvPjxyZWN0IGhlaWdodD0iNTAuMDIiIHdpZHRoPSIyNC4wOSIgeT0iNjguNDIiIHg9Ijc0Ljg4IiBjbGFzcz0iY2xzLTEiLz48cmVjdCBoZWlnaHQ9IjUwLjAyIiB3aWR0aD0iMjQuMDkiIHk9IjE3MS4xNyIgeD0iNzQuODgiIGNsYXNzPSJjbHMtMSIvPjxyZWN0IGhlaWdodD0iMjMuNiIgd2lkdGg9IjI0LjA5IiB5PSIxMzMuMDQiIHg9Ijc0Ljg4IiBjbGFzcz0iY2xzLTIiLz48cmVjdCBoZWlnaHQ9IjE2Ni4yNyIgd2lkdGg9IjI0LjA5IiB5PSIxMDkuNTUiIHg9IjM2LjE5IiBjbGFzcz0iY2xzLTEiLz48cmVjdCBoZWlnaHQ9IjUwLjAyIiB3aWR0aD0iMjQuMDkiIHk9IjIxMi40NCIgeD0iMTEyLjc4IiBjbGFzcz0iY2xzLTEiLz48cmVjdCBoZWlnaHQ9IjUwLjAyIiB3aWR0aD0iMjQuMDkiIHk9IjEwOS42MSIgeD0iMTEyLjc4IiBjbGFzcz0iY2xzLTEiLz48cmVjdCBoZWlnaHQ9IjIzLjYiIHdpZHRoPSIyNC4wOSIgeT0iMTc0LjIzIiB4PSIxMTIuNzgiIGNsYXNzPSJjbHMtMyIvPjxyZWN0IGhlaWdodD0iMTY2LjI3IiB3aWR0aD0iMjQuMDkiIHk9IjU1LjM5IiB4PSIxNTAuNjciIGNsYXNzPSJjbHMtMSIvPjwvc3ZnPg==;" parent="1" vertex="1">
          <mxGeometry x="279.5" y="214" width="188" height="75.92" as="geometry" />
        </mxCell>
        <mxCell id="RHwrk1jt3eqf5WdyCpIG-1" value="" style="shape=image;verticalLabelPosition=bottom;labelBackgroundColor=default;verticalAlign=top;aspect=fixed;imageAspect=0;image=data:image/png,iVBORw0KGgoAAAANSUhEUgAAAgAAAAEACAQAAABvmQbsAAAdcklEQVR42u3de3hU5Z0H8O97JgnhHpWLKKJcxAs1kDmTBEQRuXkh0VUBtfXSarV2tVqtq1a7K+u2bq3dtqvrpUVbde1aS1UkCSCXGhVEkpkJF2mLQuQmKAgIAXKbOe/+kczMO5OZOWcyl5Nkvh+fp0/OnHfOeeeU+c15z/u+vxcgIiIiIiIiIiIiIiIiIiIiIiIiIiIiIiIiIiIiIiIiIiIiIiIiIiIiIiIiIiIiIiIiIiIiIiIiIiIiIiIiIiIiIiIiIiIiIiIiIiIiIiIiIiIiIiIiIiIiIiIiIiIiIiIiIiIiIiIiIiIiIiIisp1I5cH0QfJ2bZocDwcaUIeP5BLvRrs/IBHFlsIAoN+H+egf8eIOVMnFR6q3Ntv9QYmoo5QFAP053BFz51GxHFWOqnVf2v1xiUiVogCgfxcLTAsZqBOVRoXXC2n3xyYiIEUBQO+Dz1FgufhOVMqKAdXVTXZ/eKJsl5IA4LpRvpLwmxrlGlHp+8uGz+2+BETZKzV3AC/gVmVzv9ghz8RAS2814BaLRVXtersvBFE2Sk0AWI6ZwY0GnOY5PNfx2URZjjKMs3iInagSFf3eZbOAKJNSEgCcNaI4uFHvGR3aUzzKKJPlYgryLB3oGFaISlFV+4Xdl4UoO6Q5ALTR+8jpWpksxzCLB/wbKlDpWcPeAqL0ykgAaKc5i7RyWQanxbPuk++Iiqalm4/afZGIeqpMBoB2E87QZolyzEQvSwdnbwFR2tgQANqwWUBkP9sCQDs2C4hsZHcAaFd0uriEzQKiTOsiAaANmwVEmdWlAkA7NguIMqQrBoB2nWkW5LyxbnfqLxJRT9WFA0Cb9mZBGU6x+AY2C4gs6/IBoB2bBURp0F0CQDs2C4hSqZsFgDZsFhClRrcMAO061SzIX7amIUP1I+ryunMAaMdmAVFn9YAA0IbNAqLE9ZgA0C7RZsF+uYzNAspePS0AtNNHyEvFDFyOvpaKN8nVbBZQNuqhAaDNpN6+yUY55rBZQBRdjw4AAcXjjDKU43w2C4jCZUUAaFM61H+JLMNl6GepeJNcLSq1N2t32V1vovTJogDQpr1ZcA1OtfiGtmbBhzDsrjlR6mVdAAhgs4AoiwNAm8IheZeyWUDZK8sDQBs2CyhbMQAo2CygbMMA0AGbBZQ9GABi0PuImbIMsy0nKK2Tbxsvr99ud72JEsEAEJ8odhnlKMMES1fKQIW837vV7koTWcUAYEnpcF8ZyjANvU2LNsuHvL+xu75E1jAAJEDvI2bIMpSZNgteGvXdhX67a0tkLsfuCnQnnuNYjMUWegu+XS/wHU4poq6PdwCdNv7U3DJZHrNZcKfnWbtrSGSGASBJMZsFx7TC2nq7a0cUn2Z3Bbo7z3H3Ys/tnuHyCnwStqOv/InddSMywwCQGoa3omWi/FB9Sd5QOtTuahHFx4eAKbPp0LhL8jdiZPCF3NbL8Ydkj6oP1E6KvVdrOfo1Vz/q2vRc7bR4+31N+YfWNiZ61Kn5x5Q8V7WfdfaRMwNACm0+6vqhfDu0rV2YfADAbcaTsXcayIfuwyHsxWask8u9f7f7GlAk7TRjW9z9aIHejL2owTqs8GyydtTDRZpyvzm1d3VT52rHAJBS7gp9H4YEtozTkjmWZTkYjMEoxPUC+sfyRd+Cjcfsvg6UoF44A2dgHuD8EM96X8vcPNMsCgBTc45MQaEYisPiU8eKdUfSchKJ3aEAIE7I+If8hvh17sPOB70vcRRC9yTOx/n6HfI7mRpQniUBYEyvgT9oeFAMatuS8LU4/+CYX/tFGk5l/xdvsPi96yp5o+ew3RWhTrpArHfNcy/JxKmyohdAHzbwfTyJQcpLeeJ7xqbii+yuWbrIcrynD0r+OGSTvvIN18xMnCgL7gAm929ajm9E2THIWFo0pc5td/0S8AVeDtvOwQAUYATOQ58OZcejasyUrc12V5kiPI/wO7NcDMRoFOLEiHL58o3Sc9O/VE0WBIDGZ8Q3Yuzqrf1pzLju8yURu90PRXt9rmPrN8Q3xY0RoxFLBv4C99hdZwrnfyJqzgjhLNVukLchT3mtf+tvMCfd9enxTQBnofhWnN2jB37P7homb6G/boP3wcMj8VO0hu2406nbXTeyRHo/ct8lCvGx+qK4pmh8uk/c4wOAuMnkM95kdw1TZWuz51+NGVCHlDgEhyN3I+4tuBhhT/813gEk7WKT/c4JBXZXMXXq3pfXhvVDXFE63O46kXWer+QPwl6Yne4z9vwAMMJkv3BkZrhOhngrxFvKpua72u4aUSK8y6DOIT0j3efr+QGgv2mJgXZXMbXkfHVL9Niuzp5KrlA2TphknoQuKd2wF8A107hOXIRT4MdOrJSveD1216hr8WzSt4d+OSQfA3Yz2i61DdeSh4QnCiV0Nrs/bmL0Efpf5XJxC0ajN/rhXNwtap2v6T3sNzxZ8q/KxnA91+76UEKOK3+3etIzZD2oW90BOAuxHJFz7IW4DhOKptftsbt2XchO5W9Hzon40uwNxScbE+V4MQrD0Af54pg8KneJrUZNfm3iE1XtMNdR75JTcLY4TRYIDYflPrEVH+W/n+SqTaKoUDtfDDWk+FpuaV6dmYnXcrCysTvdQ8u7UQAoGiwWI3qKjbO1tzjqTfGVuiH7xCt63gl5t8hrDRdEKDucRFuuOA0tx/QqbUHtyujvneuo/0IZYP0vnl+aVcz5mrgueBZX/MbbXEf9vuD4OGkMjxXii07R7q6/CcPa6q/+b1OjXqH9srbWpE6XimeCdarzBjrehOtG+QjGAhICgED+f+H+xP+vSJwcqeTp+yjdZ+tGTQDtMZwec2dJwT/bXb+uQ4SlJJe+WOVKB+hP5u3CL0VxzNyQfTHPWOGscU6MtnOhH+qElVlm9RqXJy5TamlSfrtTGR7rjf71H9PL9TNtKx6Mkai9N+YZNfr/FQ5BHFpfjAr8p7Un2Zh0ol4hX8ZYa9c7labmqNdFrOz8kazpNgGgcAhujbdfPjjXYXcduwz1JhKtMW6DXZf5tuB+9DU/nCgWa/THo11fsVjZuNDsiXXvi8J6XEwCgF+ZDCMqo5UoGTvQIx82Xazl+lyPqyiRy6cPalmV/h746I6UK2HvcMvr6T5ftwkAObMR/2HW0G3n213HLkNJFoUj67+OVsQ1X1bhZMtH1PDj+kVjekW+3Gs5Qg2v/OYpJke5Mmzr/HFxl18VSgAwKjrud17o/wjjLNV+uPyr9RAw14E/Y4LlK5NSY3qJXyhX4Jn0p3bpNs8AhPmo6EJ8YHctuwj1i/iPKPuF/oz8fodX/yZWyy/EfikwCMMwBWdF7C8b+Je5/xS+4tGaBr0alwQ3L8E7cWolZHnYdl6vqaiMVbiwL0IBfY/XG7m/+HyjKmKMx9fiHXiNfULKIThPXA41l2KBrCotWmf6MBQAPvuR6ejRNJnrqH8VY4KbO+TP0n/ObhMA5FCzJQyE9d+zHq3odJyrbK7uWEJ/DOFf/+P4L7zsichc5xwjvosfQv3VL9v2OB4MLyUrRDAAxG/VuybIiFGZYlbsAJA3RQZnxonKyGfhJSP9b4d9/ffKR8VLbmUq1FzHthvF48qzgWG+F1FmfvX0QfKR9j/3yZe0pdoO0dpykigKPbxMl8Ih2xaIK4Kbx8U89/EkDmdRqgJAI/aiBXkYYv0tk/s3XyUvlaeLfmKPrJV/8W6MV1qY15T93QAA7T51y+iQV8Z1ZfiKBXKx467aXR2P492Kh4p/Z7yIqaHXxL8UVdW9r5YSFXg6+Ahx3PhTN3wes2JXdnglTsAwZoYCvhERJvRc/xtqehexzHFtZIq3hX68VFLhW6osWTPbdaX7bZgQd8kBAIBXmu4Mdvvtxga8lM4EK/ogcYu8X3l20yiv89Sk73whKQkA4nJPsOPJ6mXS72h6DIPbOmxkIS4VP3G+Ke9mb36ySsb671A2d4+prgvff5L/d2EvLBj9/dgLmdbWT72s4Q1cHnxBaM/PPU8t79mpbwi1mB2zYudBloFft10YjHwAwFlFp9ftiF5aeQLQKFZF7HwISote/qn/jdVRezpqDkye3vRR6H5I/htMAoDU8G0AkPO9/x65z/MVUkCbXBy6yYcsME4QY0WJLJH5SqHPxdWZ+fqnKACol8bKZZrrqH+h7UIrhLhGTCqeXbs+Mx+8Zyo5yb9ITSohfhX55fY9IpS7NPEH9/c8cYeaVDeNu6rXauV39JzPvon/DStSoTwyixkA9BHBUuswHme2n38WFkQtPUx5vLfKczxin9oMqRnwneqYHZ1rGpw3iY+C/8qd+gWe1YinFADk/3ofS/TKWyVeDU/4KxCRRrIFT+c8lqaUtVHY0gtQ//MOX/82pxiVRackdiwKKT7NvwTnKC9sl78NL1E4RKjjJbY13m0+0mxzi7gVLaFt+cPw/ZryhF7MiPUvSpYHGwrr8GmwfIxGgJgRGpkgI3oAxANK12Wzdn38jPheDxYqm/GSwwTsNyxclbRokfNzRnjuz9zX35YA4CrBj2LuPFX7deZr1BPoua5bjU0oUV6S8g5PxGOk3FvUh3rardYGt3o2yWeUTWd4nppaN0INt0HFMSYfieATALFMGd82PfroDSPUAJD+KnXPpN7y28pRnzJfgFU+p2xMs/BxH43ecZoBeeJh3xL9Gdfk1Czaa4UNAUA+GvfjzS221rdL7cb00kv1x7BDvhAxsfmn3o6dcjcof9fUvmf1HDnPq7+J2hVhO6U6TEdG/U3XByIwLfkz98ciNFnphK0lUYoLMSP4tzf8sWLzFSgIbvjEr8zr7l2D0C/qmZNONCl+tPUVq1clDfLgxD/L1fo/nFdl5oQZ7wbUB2JG3ALCPwebM12r7kGe7gq7pZcFKMAQjIvW/yF/73008rUJZ4QNnHnW+plrPnF9IEOjC2biP9S9RoW4PbgxC1F6r8VlgU498TbQb13DIbQvmiJmYW1kadc4Gey+ixwDKNSxBMstrexgiFo5PfD25hIsi1t6cZdYV2mseNO1LPdbaw+m+0SZHwfgDMt8GoUosXagLDRY3m6x5FPeezu2Yx1qchBf0xuJnFouVYYXOaGpi1f1WtVyPJCYXE4qHdCxDRvsAYBYBFT7XMvlte0vzEKH5+2INwZQGaQjTTv12sttQSAAQIyPHwDEMvPjJeVheUA5Wz/0QT8xRJ6DcyIT08hLW9aUXF7zWXqrk/EAIIaaPl8ZZuU4FNNh3ON5OeoedTjsx4lNbhVqZ0HfCaPXfxraXNvoXBkcwpLrvziys03PRWAS0FdnrK4FgCVoDwCiZEJBZJtbGQMQMQaw+GRDeUjssNpVpvyOipPiF5XrE7kqifO/FjUtOIAil5grbgobnn22f1lpcXofCaYkAIzpVTANZ8uh2Ict/VfFfypr5Js+38g3K0Ax+fHHnEdiLieh9hAkONE016N0BECMwKfqXlGB4G+8nBUZAIwpWkH7n5Vt3ZKOd3xG+/OnHG0a3lRLj+klgvcakWMA5dlhx71BvwYWwpjUlanO8ddrbIk6dDoj6txwT/5p08O4X/lWjvUtCITK9Eg6AEzu3/QA7pHBYZkNR/X/wc+5Lp0N9stXc56v+SROCSVDsNyS2MHXHtSPIjh5xxHRWatVGkbwgXKHx4BaaAxge2hY96XLK13B8mEBoGCSDHbzRY4BRHgC19i9SWHCfnIK4hY94GmFjdY04Mf6OvxJ6auZpz9tMnYhKUn2Auijm9bhJ2GjsvvhIXj5JD9jDmITFuIhOclzsve+uF9/hN1efp3wmZR3GAPCd9V+gVDajTH66Ih3Bu4OjmN54CUZHKLcYSxAnDGAYdlyOid+ktgM9sDH4lkUnhpcPNLZI1mRVAAoPhnvht1WBowy3iselc5qZ6n1LSeq/+UP8AjPSZ5CzzzPE96PLKwpr8yc1w4lfHblrk50mIMv1Id1YV/povHBRC4rQuMS5NJggZETzlTLK2MAVkWOYxDJ58iN+y9eJJdCLEW8LwilZ0TOKjmp88dK6nKYMf6IWDn1TzL+mLnBDNlC+DYdUv9LOOOdOrMv8Zlmasq1DsHGiBkAQg0AuSj06ujaUOIyTSk/6UThDJbvkAXASPdDa1sbAEESLyhbmi+Nqd2TuKDOS+KOq5routqdUEcTpV2L8oB1QMLvVt/RIVWod6OSjHyanqu0pQMNAL/ap7/Qr78THJg7C8GRhq3TEBgbGDEGEACEGoSaZCfaxtr6FFzHtGupVId2iOLwpySplEQAEDebFLgZDABdS2MoAJg8DY9G6acWX0fZX4FA23WAnBhIzlI63Nf+iy5Xe8Mnii0JBABxsRIwQg2AuihTi9XA0+SdiR5q4z79cOh6ywQm2ScqmSaASd4UOZ2NgC5GzYiT4Oz2uQ71+bmMkj9AfQoQerDnuyL4r2BRxBuWIzBTsb8xKXjkmdGOF3xN/QQFU3tyh3ES/18lotMBYFxejBTdIX30ND68oE5Q1wtIKE0msP3ssAHH2zqWaHxPeYYeatUHxwfkRIwO8HwV6jkIBAx9NEYGXvNHyRbkD8sX8XVPzgGl3Jtrafwh7XQA6Nvf/PddFqSv4tQJ6urzCaZQNVzKxh7P3o4lNrcoGQFdbU+uSwcE7xM3RBnUGspWFAgYoZv6PXVRVg3whw3T0XryoHH1tj+No2q6TVZgSp5wKxvDwzvfTN+rBowPY5QJ3bRrvhkA0HppYOaHWNSxvBHsChR6W8BQ8gBVRZuTv3EflOk/wqbknelXMhJKxmSZxvkADABZxL8SSn4gxx3W3zmpt5wb2pJV0UtpS5TjzwIAJclllIk7dd5gS1fzzQDmOmTwKy0rop8DakbCy3rqWhC+y9UtsSF9Z2IAyCJ1+8UaZfOWQguLgrRpnYNQr0FTTowvZ82B0PHFLEDPDWYT3OFeH+UNhjIzbxZQ7wqepWMewMBxlysbp2+bgx5oao64U9n0S8t5GxLHAJBd1AEmBTn/Ye1NU/OlOhz19ZoDsUoqv9vDi87FBcEv9NvRk2yFxgOKWVCfAHQYAxjQ/KY6IEk8NLXbJLa37shdYeNrV6YmHWl0DABZpd9CKDMFxT1OKymy0DBfWSTEL5+IXVLtunNMUgaKLYpevnU5Agk9h+sjZHDEm4i5XsCmQ2GDYiYcmW/1sxf2HZdntaydnFeJJ9Vt8VQ6z8YAkFWqm8R8ZVMTr+lOs/e4rlNn3YkXvX+PXda9BcHpSPK8YE/Dwf4x1mzadEiZluwUgSVIZWvMAADgP9W7CfFja8mznBfmbnAUpPBSpsW4PP3fxethw/Oq3Us6fTgLGACyjPsPQn2MNgTvFk2PV955m3xV+Qe5Sz5gcoLQPcCpCMwKrIyduFvpCpwYfPJdF2d5EXg2STX1uCYWOn8Yv0rFJzufFtUYjS5NH6Tfl78Z/xY23uKovC29Z+2BLSiKy/Dd7KhVxpYN0Fbof8JDnp0dixadq/1KWfkPaMY3zTI9GIu1wP3C7MDko3ipu7SlxuPtf34v8JqoQFw5D/gvVRZAdYhf6+Xav9ZG7ZwsOle717hR9EIX4bjeGfEERZyAApyCYpzV4efYL77l2Zre+jAAZJ312/WrsEKZFiRwPea43keVsVbsydt/TOs1FCcbF2I2zofazeaXt3pNp98M/LDhQPuynIGpu42+OEuG1m7Q97R/mQuCJ4rXAABQc6BojvZu2NzGacY03StX4gO5K++Ar0kOxiCcLi7C9NDIwi7iccvD+ny42b3YauHOYgDIQp7VztnibXWoCXLldEwXAFqQGz2xQKu42fOa+bGrfa6lUk0+DrEybp5diaW4NeyVqGMAw9Wtdc2TCyPSyzqFEw8I+ICeMAllv3F93arkD2OGzwCykvevxgVI5OZyl3GR28LXH4iSx3dR/PJiacQLVVbW5XEv1mbjgHm5EPlhbkJpUO0kXs85LxNffwaArFW3IUcXv4HPQlEfnsJ5dWstlAQA5C5TFxKD32/SonesCE/DIU3KB9SuhBNV1spij7zRe4EnA8ttJ82Ht0Sp+7p1XyZ/KCsYALLWuiPue+U58rdx8+p+haf8Z3ruSSTJ67ojUEeufVi337S8Oj4x5hjAjjw7PWXGDKyImwzNhyXyurwx3ldtWu/Puk/worgJIzxXuzO0MjDAZwBdnrEwZ33gb5nylJXerbhj0r0tl2AqSjEm2DfQiJ2yXqvxfzDwvWor9wgRHNfLYDILw0KdtZv8wblvsrEuod/pulVYNf7UnHJcgEKMal821IfDOIgt8KKu9cON++IfoeWDXqERiGmYd5ez1xc3cYlsNA76Dpx1IPYi7VGv2d805ajVLYm8N6x2qf/AlEp1O7AjvWdY24hFbe30wr7om+uINtU3MTUHEmud1+7CrkTKR9rwOZ7H8wAwLk/rK1oSW9xr4z6sTPYTx7O20crxNyZ4VM/h1NSaAYCCNh5DV1gXLwmbW9Dp38LsxGcARFmMAYAoizEAEGUxBgCiLMYAQJTFGACIshgDAFEW63QAEBaWUZRdY6lFIoqh0wFg3RHTQSOy4QtLhyIimyTRBBBmoxf/vrXZ0oGIyCZJBADjrfj75VvWjkNEdkkiAPR+HvHmLDfkPm33hyOi+JIIAGsa5N1x5ljfl6mUBkTUWUl1A3r/jB9HDwHicc8LiR6NiDItyXEAnifkHETmcN8nb3A/0qnDEVFGJT0QyPsmxsrbUYXtOIbdeEf8IH+M9492fywisiIFCUE8x7EAC6yW1gzT1Gw2524rGen/uaiUS9O5JCNR15DxjEDSPFnUPguHSSMjD/PkPBh6nag0KrxeuwMSUfpkPiXYNrMCst6WKxFJgy518ahej0pR2fjeZqaaoh4o45OBPP/ApyZFKi0dKFNG4W65PP+QXuG8XR9md2WIUsuG2YDiubi7tx9J63LIndQHZeK32K27XfOdek9YeYoIsCUAfP0s4qwwL+7vwjMINOjyUeHW651POy8Z02VWnCXqLBsCwNZm/5WI9YT9P91v2Ho9rDlD3CWWDfzK9YbzO4VDkj8ckV1sSQiy/lNMxKYOL7fIez0P231BAFmPMvlb7DYt2E9eLX6fu1df63y4aHzw1XylBPMhUBdn08Ignm1TnQ234TYUtb9wSCySP/Oa9hBkpG6tqEIVhF6EMlEuzVr8GiaKieJn+k6xTH4sx+JcZd9Buz8LUXy2rQxU7cNzeK50qDHa6GV8OfCTzqxBl1bS44UXjxWdIsq0MjkDvU3Kj5C3d1iX3nSdeyJ72bw02LovYXHOoDhoNh7HwhCjTqjbg9/hd5N6N8/QymQZTkngrVJ7Mx01IkqdbrM2oNxuVkL7LH1nX9uIClRAFOmOMlmOIisdgfLN2vWZuz5EndFtsgKLZSYFWpstryvfabLO7Z7v0VtPFjdjIY7GLbtDfj+Dl4eoU7pNAHCvF+64BRZuOpSpumzc537FMw9DxZV4AdEX097guLhuf2avEFHiuk0TANL/I+3dmAGrwfGTTFfIcxyLsRii2GWUYzbGw9G+Y7v87wHPVzfZd6mIrOpWg1pdD8gnou4wcI1nUfT36E0wG7F3oWd18nWb3L/5HONEtIgdni7RmUlkRfe5AwDg/oV+FL9BbsTLh/EtT5XddVvTgBq760CUqG7zDKCN51lxHv6MxuALh8QzOWfZ//Un6p661R0AALi34NrCvnnFxnCtSe7q7+lyA4iIupFuFwAAYOMxVFsu3Gr6DIAj9ilrdbMmQCeYr0+418JRiHqknh8A6kz2Hxz1uaXjEPVAPT4ACLMVCisW+u2uI5FdenwAGPln/C3Obr/2pN01JLJPjw8AC/3yjjiP+X5Ru9nuGhLZx5H8Ibq6vTuHfSbKo31S8brnTmb9p2zW4+8AAMD7qjED/4h48bh8xH09DLvrRmSnbjUXIBlTc47OkVehEKfBL7egyv/CBj79JyIiIiIiIiIiIiIiIiIiIiIiIiIiIiIiIiIiIiIiIiIiIiIiIiIiIiIiIiIiIiIiIiIiIiIiIiIiIiIiIiIiIiIiIiIiIiIiIiIiIiIiIiIiIiIiIiIiIiIiIiIiIiIiIiIiIiIiIiIiIiIiIiKy3/8Dl5svQVhE6cUAAAAASUVORK5CYII=;fillColor=#FFFF99;" parent="1" vertex="1">
          <mxGeometry x="595" y="360" width="200" height="100" as="geometry" />
        </mxCell>
        <mxCell id="wkKB1ZJIt97okuTBLWUj-2" value="" style="shape=flexArrow;endArrow=classic;startArrow=classic;html=1;rounded=0;exitX=0.33;exitY=-0.05;exitDx=0;exitDy=0;exitPerimeter=0;" parent="1" source="RHwrk1jt3eqf5WdyCpIG-1" edge="1">
          <mxGeometry width="100" height="100" relative="1" as="geometry">
            <mxPoint x="670" y="358" as="sourcePoint" />
            <mxPoint x="660" y="238" as="targetPoint" />
          </mxGeometry>
        </mxCell>
      </root>
    </mxGraphModel>
  </diagram>
</mxfile>
